<svg xmlns="http://www.w3.org/2000/svg" viewBox="0 0 60 60" fill="none">
  <defs>
    <linearGradient id="moonGradient" x1="0%" y1="0%" x2="100%" y2="100%">
      <stop offset="0%" style="stop-color:#FCD34D;stop-opacity:1" />
      <stop offset="100%" style="stop-color:#FCA5A5;stop-opacity:1" />
    </linearGradient>
  </defs>
  
  <!-- Luna con cráteres -->
  <circle cx="30" cy="30" r="24" fill="url(#moonGradient)"/>
  <circle cx="23" cy="21" r="4.5" fill="#FEF3C7" opacity="0.6"/>
  <circle cx="36" cy="27" r="3.5" fill="#FEF3C7" opacity="0.5"/>
  <circle cx="27" cy="36" r="3" fill="#FEF3C7" opacity="0.4"/>
  <circle cx="38" cy="36" r="2.5" fill="#FEF3C7" opacity="0.5"/>
  
  <!-- Brillo lunar -->
  <path d="M 18 17 Q 21 14, 27 14 Q 33 14, 36 17" stroke="#FFFFFF" stroke-width="2" fill="none" opacity="0.8" stroke-linecap="round"/>
  
  <!-- Estrellas alrededor -->
  <path d="M 50 10 L 51.5 13 L 54.5 14.5 L 51.5 16 L 50 19 L 48.5 16 L 45.5 14.5 L 48.5 13 Z" fill="#FFFFFF" opacity="0.9"/>
  <path d="M 8 48 L 9 50 L 11 51 L 9 52 L 8 54 L 7 52 L 5 51 L 7 50 Z" fill="#FFFFFF" opacity="0.8"/>
</svg>
